<?xml version="1.0" encoding="utf-8"?>
<?xml-stylesheet type="text/xsl" href="rss1.xsl"?>
<rss version="2.0" xmlns:atom="http://www.w3.org/2005/Atom" xmlns:content="http://purl.org/rss/1.0/modules/content/" xmlns:dc="http://purl.org/dc/elements/1.1/" xmlns:media="http://search.yahoo.com/mrss/">
<channel>
 <title>Getty</title>
 <link>http://www.gettyimg.com/</link>
 <atom:link href="http://www.gettyimg.com/" rel="self" type="application/rss+xml" />

 
                <item>
                <title><![CDATA[【Cinema Center】SERIES - I Am Frankie - Season 1 - 1080p Amazon WEB-DL DDP2.0 H.264-TVSmash]]></title>
                <link><![CDATA[https://sharemania.us/threads/i-am-frankie-season-1-1080p-amazon-web-dl-ddp2-0-h-264-tvsmash.234932/]]></link>
                <description><![CDATA[<article>
<blockquote class="messageText SelectQuoteContainer ugc baseHtml">
I Am Frankie:<img src="http:////cdn2.broadcasthe.net/tvdb/banners/graphical/331307-g3.jpg" class="bbCodeImage LbImage" alt="[​IMG]" data-url="http:////cdn2.broadcasthe.net/tvdb/banners/graphical/331307-g3.jpg" style=""><br>
<br>
<div class="bbCodeBlock bbCodeQuote">
<aside>
<blockquote class="quoteContainer"><div class="quote"><i><b>Synopsis:</b></i><br>
“I Am Frankie” is the story of Frankie, an experimental android who navigates the perils and wonders of being a teenager. Frankie looks like any other girl, but functions like the newest computer: complete with Internet access, extensive memory and a hard disk. Frankie goes to school and no one but the members of her family know her secret. She adapts to the real world quite well, despite having no feelings or emotions, but all that changes when she begins to experience family life, make friends and have a boyfriend.</div><div class="quoteExpand">Click to expand...</div></blockquote>
</aside>
</div>
<div class="ToggleTriggerAnchor bbCodeSpoilerContainer">
<button type="button" class="button bbCodeSpoilerButton ToggleTrigger Tooltip JsOnly" data-target="> .SpoilerTarget"><span>Spoiler: <span class="SpoilerTitle">MediaInfo</span></span></button>
<div class="SpoilerTarget bbCodeSpoilerText">General<br>
Unique ID : 55964015524877588265580989274751435495 (0x2A1A46FF25EB64E1B156CEAB96E302E7)<br>
Complete name : I.Am.Frankie.S01E01E02.I.Am...in.Danger.REPACK.1080p.AMZN.WEB-DL.DDP2.0.H.264-TVSmash.mkv<br>
Format : Matroska<br>
Format version : Version 4 / Version 2<br>
File size : 2.57 GiB<br>
Duration : 44mn 19s<br>
Overall bit rate mode : Variable<br>
Overall bit rate : 8 316 Kbps<br>
Encoded date : UTC 2017-09-14 18:39:16<br>
Writing application : mkvmerge v15.0.0 ('Duel with the Devil') 64-bit<br>
Writing library : libebml v1.3.5 + libmatroska v1.4.5<br>
<br>
Video<br>
ID : 1<br>
Format : AVC<br>
Format/Info : Advanced Video Codec<br>
Format profile : High@L4<br>
Format settings, CABAC : Yes<br>
Format settings, ReFrames : 4 frames<br>
Codec ID : V_MPEG4/ISO/AVC<br>
Duration : 44mn 19s<br>
Bit rate mode : Variable<br>
Bit rate : 8 090 Kbps<br>
Maximum bit rate : 15.0 Mbps<br>
Width : 1 920 pixels<br>
Height : 1 080 pixels<br>
Display aspect ratio : 16:9<br>
Frame rate mode : Constant<br>
Frame rate : 23.976 (24000/1001) fps<br>
Color space : YUV<br>
Chroma subsampling : 4:2:0<br>
Bit depth : 8 bits<br>
Scan type : Progressive<br>
Bits/(Pixel*Frame) : 0.163<br>
Stream size : 2.50 GiB (97%)<br>
Default : Yes<br>
Forced : No<br>
Color range : Limited<br>
Color primaries : BT.709<br>
Transfer characteristics : BT.709<br>
Matrix coefficients : BT.709<br>
<br>
Audio<br>
ID : 2<br>
Format : E-AC-3<br>
Format/Info : Audio Coding 3<br>
Format settings, Endianness : Big<br>
Codec ID : A_EAC3<br>
Duration : 44mn 19s<br>
Bit rate mode : Constant<br>
Bit rate : 224 Kbps<br>
Channel(s) : 2 channels<br>
Channel positions : Front: L R<br>
Sampling rate : 48.0 KHz<br>
Frame rate : 187.500 fps (256 spf)<br>
Compression mode : Lossy<br>
Stream size : 71.0 MiB (3%)<br>
Language : English<br>
Default : Yes<br>
Forced : No<br>
<br>
Text<br>
ID : 3<br>
Format : UTF-8<br>
Codec ID : S_TEXT/UTF8<br>
Codec ID/Info : UTF-8 Plain Text<br>
Duration : 43mn 56s<br>
Bit rate : 94 bps<br>
Count of elements : 1047<br>
Stream size : 30.4 KiB (0%)<br>
Language : English<br>
Default : No<br>
Forced : No</div>
</div><br>
Screenshots:<br>
<img src="https://i.imgur.com/CqjfJQk.jpg" class="bbCodeImage LbImage" alt="[​IMG]" data-url="https://i.imgur.com/CqjfJQk.jpg" style=""> <br>
<br>
<div class="bbCodeBlock bbCodeVfcHH HiddenContent">
<div class="attribution type">Hidden Content:</div>
<blockquote>You must either reply or click 'Like' to see the hidden information contained here.</blockquote>
</div>
<div class="messageTextEndMarker">&nbsp;</div>
</blockquote>
</article>]]></description>
                <author><![CDATA[LazyRips]]></author>
                </item>

                </channel></rss>